<svg xmlns="http://www.w3.org/2000/svg" xmlns:xlink="http://www.w3.org/1999/xlink" width="1056" zoomAndPan="magnify" viewBox="0 0 792 743.999977" height="992" preserveAspectRatio="xMidYMid meet" version="1.0"><defs><clipPath id="0bda7c7350"><path d="M 27.011719 0 L 771 0 L 771 744 L 27.011719 744 Z M 27.011719 0 " clip-rule="nonzero"/></clipPath></defs><g clip-path="url(#0bda7c7350)"><path fill="#e71b24" d="M 604.304688 61.769531 C 545.480469 22.730469 474.871094 0 399 0 C 323.128906 0 252.519531 22.730469 193.695312 61.769531 C 141.289062 96.496094 98.25 144.164062 68.996094 200.148438 C 42.164062 251.5 27.011719 310.007812 27.011719 371.988281 C 27.011719 433.96875 42.164062 492.476562 68.996094 543.933594 C 131.082031 662.84375 255.570312 743.976562 399 743.976562 C 604.410156 743.976562 770.988281 577.398438 770.988281 371.988281 C 770.988281 242.449219 704.796875 128.378906 604.304688 61.769531 Z M 604.304688 61.769531 " fill-opacity="1" fill-rule="nonzero"/></g><path fill="#ffff70" d="M 230.839844 132.800781 L 252.519531 198.464844 L 321.65625 198.78125 L 265.882812 239.609375 L 286.929688 305.484375 L 230.839844 265.074219 L 174.753906 305.484375 L 195.800781 239.609375 L 140.027344 198.78125 L 209.164062 198.464844 Z M 230.839844 132.800781 " fill-opacity="1" fill-rule="nonzero"/><path fill="#ffff70" d="M 420.464844 275.386719 L 426.359375 293.277344 L 445.300781 293.382812 L 430.042969 304.535156 L 435.828125 322.53125 L 420.464844 311.585938 L 405.207031 322.53125 L 410.890625 304.535156 L 395.632812 293.382812 L 414.574219 293.277344 Z M 420.464844 275.386719 " fill-opacity="1" fill-rule="nonzero"/><path fill="#ffff70" d="M 403.839844 174.15625 L 420.675781 182.679688 L 434.039062 169.421875 L 431.199219 188.046875 L 448.035156 196.675781 L 429.410156 199.726562 L 426.359375 218.351562 L 417.625 201.621094 L 399 204.460938 L 412.257812 191.097656 Z M 403.839844 174.15625 " fill-opacity="1" fill-rule="nonzero"/><path fill="#ffff70" d="M 365.21875 338.734375 L 356.695312 355.574219 L 370.0625 369.042969 L 351.332031 366.199219 L 342.703125 382.933594 L 339.648438 364.304688 L 321.023438 361.253906 L 337.753906 352.625 L 334.914062 333.894531 L 348.382812 347.257812 Z M 365.21875 338.734375 " fill-opacity="1" fill-rule="nonzero"/><path fill="#ffff70" d="M 325.863281 113.859375 L 342.703125 122.277344 L 356.066406 109.019531 L 353.222656 127.644531 L 370.0625 136.378906 L 351.332031 139.429688 L 348.382812 158.054688 L 339.648438 141.21875 L 321.023438 144.058594 L 334.28125 130.695312 Z M 325.863281 113.859375 " fill-opacity="1" fill-rule="nonzero"/></svg>