<svg xmlns="http://www.w3.org/2000/svg" xmlns:xlink="http://www.w3.org/1999/xlink" width="1056" zoomAndPan="magnify" viewBox="0 0 792 743.999977" height="992" preserveAspectRatio="xMidYMid meet" version="1.0"><defs><clipPath id="17a71cb366"><path d="M 24.007812 0 L 768.007812 0 L 768.007812 744 L 24.007812 744 Z M 24.007812 0 " clip-rule="nonzero"/></clipPath><clipPath id="7b3ef9cc98"><path d="M 24.007812 0 L 397 0 L 397 372 L 24.007812 372 Z M 24.007812 0 " clip-rule="nonzero"/></clipPath></defs><g clip-path="url(#17a71cb366)"><path fill="#e51c22" d="M 768.007812 372 C 768.007812 415.5 760.550781 457.183594 746.878906 496 C 736.9375 524.203125 723.648438 550.878906 707.492188 575.542969 C 641.046875 676.980469 526.414062 744 396.007812 744 C 293.710938 744 201.070312 702.699219 133.765625 635.871094 C 115.40625 617.609375 98.867188 597.339844 84.527344 575.542969 C 46.285156 517.03125 24.007812 447.144531 24.007812 372 C 24.007812 296.855469 46.285156 226.96875 84.527344 168.457031 C 98.773438 146.660156 115.3125 126.390625 133.765625 108.035156 C 201.070312 41.300781 293.710938 0 396.007812 0 C 526.320312 0 641.046875 67.019531 707.492188 168.457031 C 723.648438 193.121094 736.9375 219.699219 746.878906 248 C 760.550781 286.816406 768.007812 328.5 768.007812 372 Z M 768.007812 372 " fill-opacity="1" fill-rule="nonzero"/></g><g clip-path="url(#7b3ef9cc98)"><path fill="#292e82" d="M 396.007812 0 L 396.007812 372 L 24.007812 372 C 24.007812 296.855469 46.285156 226.96875 84.527344 168.457031 C 98.773438 146.660156 115.3125 126.390625 133.765625 108.035156 C 201.070312 41.300781 293.710938 0 396.007812 0 Z M 396.007812 0 " fill-opacity="1" fill-rule="nonzero"/></g><path fill="#ffffff" d="M 245.238281 160.902344 L 231.949219 118.933594 L 218.660156 160.902344 C 222.964844 159.949219 227.363281 159.46875 231.949219 159.46875 C 236.539062 159.46875 240.9375 159.949219 245.238281 160.902344 Z M 245.238281 160.902344 " fill-opacity="1" fill-rule="nonzero"/><path fill="#ffffff" d="M 213.59375 162.242188 L 181.089844 132.507812 L 190.554688 175.53125 C 197.152344 169.507812 204.988281 164.917969 213.59375 162.242188 Z M 213.59375 162.242188 " fill-opacity="1" fill-rule="nonzero"/><path fill="#ffffff" d="M 282.8125 132.507812 L 250.308594 162.242188 C 258.910156 164.917969 266.75 169.507812 273.253906 175.53125 Z M 282.8125 132.507812 " fill-opacity="1" fill-rule="nonzero"/><path fill="#ffffff" d="M 333.675781 220.65625 L 291.703125 207.367188 C 292.660156 211.671875 293.136719 216.066406 293.136719 220.65625 C 293.136719 225.246094 292.660156 229.644531 291.703125 233.945312 Z M 333.675781 220.65625 " fill-opacity="1" fill-rule="nonzero"/><path fill="#ffffff" d="M 186.921875 179.261719 L 143.898438 169.796875 L 173.632812 202.300781 C 176.308594 193.601562 180.898438 185.761719 186.921875 179.261719 Z M 186.921875 179.261719 " fill-opacity="1" fill-rule="nonzero"/><path fill="#ffffff" d="M 290.367188 202.207031 L 320.097656 169.699219 L 277.078125 179.164062 C 283.101562 185.761719 287.59375 193.601562 290.367188 202.207031 Z M 290.367188 202.207031 " fill-opacity="1" fill-rule="nonzero"/><path fill="#ffffff" d="M 250.402344 278.976562 L 282.910156 308.710938 L 273.445312 265.6875 C 266.847656 271.710938 259.007812 276.300781 250.402344 278.976562 Z M 250.402344 278.976562 " fill-opacity="1" fill-rule="nonzero"/><path fill="#ffffff" d="M 218.757812 280.410156 L 232.046875 322.382812 L 245.335938 280.410156 C 241.035156 281.367188 236.636719 281.84375 232.046875 281.84375 C 227.457031 281.84375 222.964844 281.269531 218.757812 280.410156 Z M 218.757812 280.410156 " fill-opacity="1" fill-rule="nonzero"/><path fill="#ffffff" d="M 277.078125 261.957031 L 320.097656 271.421875 L 290.367188 238.917969 C 287.59375 247.617188 283.101562 255.457031 277.078125 261.957031 Z M 277.078125 261.957031 " fill-opacity="1" fill-rule="nonzero"/><path fill="#ffffff" d="M 170.761719 220.65625 C 170.761719 216.066406 171.242188 211.671875 172.199219 207.367188 L 130.226562 220.65625 L 172.199219 233.945312 C 171.335938 229.644531 170.761719 225.148438 170.761719 220.65625 Z M 170.761719 220.65625 " fill-opacity="1" fill-rule="nonzero"/><path fill="#ffffff" d="M 181.089844 308.710938 L 213.59375 278.976562 C 204.988281 276.300781 197.152344 271.710938 190.648438 265.6875 Z M 181.089844 308.710938 " fill-opacity="1" fill-rule="nonzero"/><path fill="#ffffff" d="M 173.632812 239.011719 L 143.898438 271.519531 L 186.921875 262.054688 C 180.898438 255.457031 176.308594 247.617188 173.632812 239.011719 Z M 173.632812 239.011719 " fill-opacity="1" fill-rule="nonzero"/><path fill="#ffffff" d="M 286.160156 220.65625 C 286.160156 222.433594 286.070312 224.203125 285.898438 225.96875 C 285.722656 227.738281 285.464844 229.492188 285.117188 231.230469 C 284.769531 232.972656 284.339844 234.695312 283.824219 236.394531 C 283.308594 238.089844 282.710938 239.761719 282.03125 241.402344 C 281.351562 243.042969 280.59375 244.644531 279.757812 246.210938 C 278.921875 247.777344 278.007812 249.296875 277.023438 250.773438 C 276.035156 252.25 274.980469 253.675781 273.855469 255.046875 C 272.726562 256.417969 271.539062 257.734375 270.28125 258.988281 C 269.027344 260.242188 267.710938 261.433594 266.339844 262.558594 C 264.96875 263.6875 263.542969 264.742188 262.066406 265.730469 C 260.589844 266.714844 259.070312 267.628906 257.503906 268.464844 C 255.9375 269.300781 254.335938 270.058594 252.695312 270.738281 C 251.054688 271.417969 249.386719 272.015625 247.6875 272.53125 C 245.988281 273.046875 244.269531 273.476562 242.527344 273.824219 C 240.785156 274.167969 239.03125 274.429688 237.265625 274.605469 C 235.496094 274.777344 233.726562 274.863281 231.949219 274.863281 C 230.175781 274.863281 228.40625 274.777344 226.636719 274.605469 C 224.871094 274.429688 223.117188 274.167969 221.375 273.824219 C 219.632812 273.476562 217.914062 273.046875 216.214844 272.53125 C 214.515625 272.015625 212.847656 271.417969 211.207031 270.738281 C 209.566406 270.058594 207.964844 269.300781 206.398438 268.464844 C 204.832031 267.628906 203.3125 266.714844 201.835938 265.730469 C 200.359375 264.742188 198.933594 263.6875 197.5625 262.558594 C 196.1875 261.433594 194.875 260.242188 193.621094 258.988281 C 192.363281 257.734375 191.171875 256.417969 190.046875 255.046875 C 188.921875 253.675781 187.863281 252.25 186.878906 250.773438 C 185.890625 249.296875 184.980469 247.777344 184.144531 246.210938 C 183.304688 244.644531 182.546875 243.042969 181.867188 241.402344 C 181.191406 239.761719 180.59375 238.089844 180.078125 236.394531 C 179.5625 234.695312 179.128906 232.972656 178.785156 231.230469 C 178.4375 229.492188 178.179688 227.738281 178.003906 225.96875 C 177.828125 224.203125 177.742188 222.433594 177.742188 220.65625 C 177.742188 218.882812 177.828125 217.109375 178.003906 215.34375 C 178.179688 213.578125 178.4375 211.824219 178.785156 210.082031 C 179.128906 208.339844 179.5625 206.621094 180.078125 204.921875 C 180.59375 203.222656 181.191406 201.550781 181.867188 199.914062 C 182.546875 198.273438 183.304688 196.667969 184.144531 195.101562 C 184.980469 193.539062 185.890625 192.015625 186.878906 190.539062 C 187.863281 189.0625 188.921875 187.640625 190.046875 186.269531 C 191.171875 184.894531 192.363281 183.582031 193.621094 182.324219 C 194.875 181.070312 196.1875 179.878906 197.5625 178.753906 C 198.933594 177.628906 200.359375 176.570312 201.835938 175.585938 C 203.3125 174.597656 204.832031 173.6875 206.398438 172.847656 C 207.964844 172.011719 209.566406 171.253906 211.207031 170.574219 C 212.847656 169.894531 214.515625 169.296875 216.214844 168.78125 C 217.914062 168.269531 219.632812 167.835938 221.375 167.492188 C 223.117188 167.144531 224.871094 166.882812 226.636719 166.710938 C 228.40625 166.535156 230.175781 166.449219 231.949219 166.449219 C 233.726562 166.449219 235.496094 166.535156 237.265625 166.710938 C 239.03125 166.882812 240.785156 167.144531 242.527344 167.492188 C 244.269531 167.835938 245.988281 168.269531 247.6875 168.78125 C 249.386719 169.296875 251.054688 169.894531 252.695312 170.574219 C 254.335938 171.253906 255.9375 172.011719 257.503906 172.847656 C 259.070312 173.6875 260.589844 174.597656 262.066406 175.585938 C 263.542969 176.570312 264.96875 177.628906 266.339844 178.753906 C 267.710938 179.878906 269.027344 181.070312 270.28125 182.324219 C 271.539062 183.582031 272.726562 184.894531 273.855469 186.269531 C 274.980469 187.640625 276.035156 189.0625 277.023438 190.539062 C 278.007812 192.015625 278.921875 193.539062 279.757812 195.101562 C 280.59375 196.667969 281.351562 198.273438 282.03125 199.914062 C 282.710938 201.550781 283.308594 203.222656 283.824219 204.921875 C 284.339844 206.621094 284.769531 208.339844 285.117188 210.082031 C 285.464844 211.824219 285.722656 213.578125 285.898438 215.34375 C 286.070312 217.109375 286.160156 218.882812 286.160156 220.65625 Z M 286.160156 220.65625 " fill-opacity="1" fill-rule="nonzero"/></svg>